<svg width="48" height="36" viewBox="0 0 48 36" fill="none" xmlns="http://www.w3.org/2000/svg">
<path d="M6.38568 3.50135C3.26329 3.44972 0.81927 4.29966 0.144989 6.50899C-1.24974 11.0742 7.77205 15.9731 12.0243 18.3082C12.9379 18.8073 13.3293 18.4959 12.751 17.8277C10.0636 14.735 6.24146 8.64472 11.6357 5.07042C11.8981 4.89742 12.2181 4.70074 12.5048 4.53356L12.5907 4.48618L12.5048 4.471C10.3781 3.88802 8.25912 3.53233 6.38568 3.50135ZM35.3973 17.0268C34.9291 16.9351 34.8145 17.2346 35.2519 17.7357C37.9345 20.828 41.7633 26.9168 36.3642 30.493V30.49C36.1067 30.663 35.7927 30.8607 35.5011 31.0298L35.4121 31.0802L35.5011 31.0924C41.1674 32.647 46.7761 32.5885 47.8549 29.0517C49.2497 24.4865 40.2327 19.5886 35.9757 17.2554C35.7485 17.1306 35.5533 17.0574 35.3973 17.0268Z" fill="#F8F8F8"/>
<path d="M32.0907 0C19.4944 0 12.3601 4.48477 12.3601 4.48477C20.7236 6.05834 37.2643 14.4687 42.5759 14.4687C44.6413 14.4687 45.634 12.461 45.634 10.0729C45.634 7.28591 44.6423 4.25354 42.8102 2.45595C41.0753 0.745339 36.9698 0 32.0907 0ZM4.97154 21.0891C2.90618 21.0891 1.91644 23.0978 1.91644 25.4878C1.91644 28.2749 2.90701 31.3053 4.73425 33.1048C6.47402 34.8135 10.5806 35.5637 15.4597 35.5637C28.0512 35.5637 35.1903 31.076 35.1903 31.076C26.8268 29.5024 10.2832 21.0891 4.97154 21.0891Z" fill="#F8F8F8"/>
</svg>
